<?xml version="1.0" encoding="UTF-8" standalone="no"?><!DOCTYPE svg PUBLIC "-//W3C//DTD SVG 1.1//EN" "http://www.w3.org/Graphics/SVG/1.1/DTD/svg11.dtd"><svg width="100%" height="100%" viewBox="0 0 540 540" version="1.1" xmlns="http://www.w3.org/2000/svg" xmlns:xlink="http://www.w3.org/1999/xlink" xml:space="preserve" xmlns:serif="http://www.serif.com/" style="fill-rule:evenodd;clip-rule:evenodd;stroke-linejoin:round;stroke-miterlimit:2;"><path id="path170" d="M455.331,526.047c-0.001,-0.623 -44.374,-88.733 -45.336,-90.022c-0.888,-1.189 -25.083,-49.745 -25.084,-50.337c0,-0.529 26.331,-0.637 26.801,-0.11c0.122,0.136 6.105,11.542 13.295,25.347c17.637,33.863 19.461,37.281 19.865,37.242c0.43,-0.042 7.2,-8.037 13.188,-15.575c5.561,-7.001 15.974,-22.826 21.261,-32.311c21.464,-38.51 32.605,-86.548 29.833,-128.636c-3.29,-49.96 -20.004,-94.323 -50.626,-134.377c-3.674,-4.806 -11.765,-14.218 -15.375,-17.888l-2.165,-2.2l-0.046,15.796c-0.03,10.624 -0.426,18.612 -1.21,24.398c-5.335,39.389 -20.225,72.134 -44.124,97.035c-9.814,10.226 -21.117,18.496 -34.594,25.313l-7.144,3.613l33.126,-0c37.481,-0 37.365,-0.014 45.428,5.405c5.041,3.388 8.981,8.226 11.214,13.768c1.467,3.641 1.563,5.102 1.914,28.935c0.203,13.805 0.148,26.198 -0.121,27.54c-0.27,1.342 -1.168,2.989 -1.996,3.66c-1.423,1.153 -8.845,1.22 -133.806,1.22c-131.652,0 -132.308,-0.007 -134.089,-1.407c-1.169,-0.92 -2.798,-4.001 -4.701,-8.89c-1.601,-4.115 -5.815,-14.855 -9.365,-23.866c-7.857,-19.948 -9.724,-25.041 -9.326,-25.439c0.442,-0.442 14.403,4.111 15.272,4.98c0.599,0.599 13.638,31.391 16.117,38.063l0.713,1.918l236.917,-0l-0,-41.788l-180.231,-0.442l-11.852,-1.879c-31.442,-4.982 -60.621,-12.304 -102.028,-25.602c-14.741,-4.734 -18.985,-5.863 -18.733,-4.983c0.659,2.3 30.674,78.831 45.291,115.481l7.23,18.127l205.763,0.354l7.688,14.813c4.228,8.148 15.591,30.344 25.252,49.326c9.661,18.982 19.805,38.814 22.543,44.072l4.978,9.561l14.132,0.2c7.864,0.112 14.131,-0.072 14.131,-0.415Zm-337.988,-4.09c16.975,-24.177 54.875,-77.522 61.053,-85.932l3.073,-4.183l-15.149,-0.188c-13.808,-0.172 -15.233,-0.079 -16.083,1.045c-3.768,4.985 -55.385,77.406 -62.871,88.212l-3.743,5.404l30.661,-0l3.059,-4.358Zm176.699,-5.09c27.899,-3.046 58.156,-11.792 81.704,-23.619l6.313,-3.171l-1.095,-2.623c-0.602,-1.443 -7.203,-14.625 -14.668,-29.292l-13.574,-26.669l-143.857,0.044l-3.138,4.668c-1.726,2.567 -11.536,16.431 -21.8,30.808l-18.662,26.141l2.626,1.353c5.929,3.053 22.218,9.579 30.613,12.265c16.906,5.409 30.567,8.303 47.91,10.148c11.809,1.256 35.877,1.23 47.628,-0.053l-0,-0Zm-184.912,-66.746c2.282,-3.151 9.443,-12.872 15.912,-21.602l11.762,-15.872l-0.855,-2.604c-0.47,-1.432 -5.224,-13.742 -10.565,-27.355c-20.124,-51.293 -31.794,-81.24 -59.095,-151.644c-4.907,-12.655 -10.384,-26.773 -12.171,-31.375c-1.788,-4.602 -3.506,-8.624 -3.818,-8.939c-1.278,-1.286 -8.91,19.789 -12.957,35.782c-5.324,21.039 -6.981,34.987 -6.913,58.217c0.047,15.927 0.276,19.584 1.893,30.119c7.983,52.03 30.135,98.139 63.808,132.815c4.397,4.528 8.187,8.222 8.422,8.21c0.234,-0.013 2.294,-2.601 4.577,-5.752Zm156.835,-165.809c3.028,-0.319 5.819,-0.685 6.202,-0.813c0.383,-0.128 -0.997,-1.574 -3.066,-3.215c-14.792,-11.727 -27.704,-27.73 -35.79,-44.36c-5.311,-10.922 -7.739,-17.827 -16.721,-47.555c-12.913,-42.738 -16.318,-52.921 -19.53,-58.402c-3.572,-6.095 -10.811,-11.996 -17.827,-14.531c-7.118,-2.572 -80.506,-22.79 -82.724,-22.79c-5.066,0 -8.611,3.582 -8.611,8.7c-0,2.006 21.479,57.009 37.579,96.231c3.998,9.741 19.592,49.461 19.592,49.905c0,0.282 -3.725,-0.747 -8.278,-2.285l-8.277,-2.797l-3.992,-9.862c-12.632,-31.209 -43.98,-109.525 -46.925,-117.232c-1.905,-4.985 -3.679,-10.343 -3.943,-11.905c-0.484,-2.868 0.594,-8.938 1.88,-10.58c0.464,-0.594 0.411,-0.872 -0.168,-0.872c-1.113,0 -27.893,13.793 -29.476,15.182c-2.066,1.813 -1.408,5.279 3.246,17.075c2.456,6.225 9.939,25.124 16.63,41.997c6.69,16.872 16.674,42.19 22.187,56.261l10.022,25.584l10.126,3.491c69.299,23.892 127.497,35.975 157.864,32.773Zm62.123,-19.825c45.306,-8.369 78.259,-49.586 86.491,-108.181c3.223,-22.94 2.542,-53.326 -1.798,-80.258c-2.77,-17.185 -7.758,-39.412 -12.392,-55.215c-1.905,-6.495 -1.987,-6.628 -4.206,-6.844c-3.064,-0.299 -15.024,2.77 -25.783,6.615c-29.441,10.523 -58.271,29.408 -81.388,53.317c-27.982,28.939 -43.735,62.643 -45.415,97.162c-1.135,23.323 7.121,49.198 21.967,68.85c1.376,1.822 2.707,3.312 2.959,3.312c0.251,-0 1.519,-1.961 2.817,-4.358c4.376,-8.079 4.318,-7.244 1.003,-14.553c-5.112,-11.274 -9.444,-23.392 -9.444,-26.417c-0,-3.847 2.363,-6.266 6.121,-6.266c3.727,-0 4.845,1.42 9.852,12.508c2.327,5.153 4.47,9.604 4.762,9.889c0.85,0.833 12.973,-22.427 12.944,-24.837c-0.013,-1.151 -1.515,-6.014 -3.336,-10.807c-7.208,-18.963 -9.8,-34.113 -9.188,-53.686c0.222,-7.094 0.742,-14.066 1.155,-15.492c1.474,-5.086 6.811,-6.39 10.608,-2.594l2.133,2.134l-0.478,10.242c-0.753,16.102 1.133,31.351 5.666,45.8c2.694,8.591 2.76,8.655 4.847,4.735c11.574,-21.726 17.663,-33.741 17.663,-34.849c0,-0.74 -0.935,-5.091 -2.078,-9.67c-3.836,-15.369 -6.289,-33.584 -6.285,-46.671c0.001,-4.99 0.28,-6.731 1.36,-8.503c2.4,-3.934 8.663,-3.77 10.708,0.281c0.589,1.168 1.167,5.436 1.443,10.663c0.252,4.793 0.766,10.911 1.141,13.595c1.058,7.567 3.66,20.57 4.112,20.549c0.223,-0.011 2.885,-4.442 5.915,-9.849l5.51,-9.829l-0.861,-7.408c-0.473,-4.074 -1.034,-13.418 -1.246,-20.765l-0.387,-13.358l1.807,-1.806c2.926,-2.927 8.467,-2.323 10.312,1.125c0.443,0.828 1.061,6.359 1.374,12.292c0.69,13.106 1.977,23.82 2.862,23.82c0.359,0 6.768,-3.002 14.243,-6.671c14.811,-7.27 16.265,-7.574 19.086,-3.988c1.59,2.021 1.874,6.31 0.531,8.01c-1.77,2.241 -15.956,9.776 -31.954,16.972c-5.668,2.549 -6.092,2.895 -8.049,6.56c-1.136,2.127 -3.885,7.244 -6.109,11.37l-4.043,7.501l5.469,-2.027c8.611,-3.194 12.354,-4.734 19.807,-8.15c7.754,-3.554 10.018,-3.644 12.495,-0.495c1.542,1.96 1.843,5.746 0.637,8c-1.427,2.666 -27.763,14.285 -43.218,19.067l-3.895,1.205l-5.692,10.961c-3.131,6.029 -5.692,11.144 -5.692,11.367c-0,0.431 10.561,-3.065 18.128,-6.001c9.549,-3.705 21.762,-9.187 34.562,-15.514c8.114,-4.01 14.137,-6.573 15.451,-6.573c1.549,0 2.661,0.603 3.959,2.145c1.96,2.33 2.256,4.469 1,7.225c-0.96,2.107 -1.352,2.374 -12.18,8.272c-15.795,8.605 -37.757,17.866 -58.131,24.512c-6.711,2.19 -12.556,4.347 -12.989,4.793c-1.147,1.184 -17.226,31.836 -16.881,32.182c0.313,0.313 13.878,-3.818 23.595,-7.186c12.628,-4.376 32.803,-13.153 44.97,-19.563c3.004,-1.582 6.309,-2.877 7.343,-2.877c4.538,-0 7.467,5.391 5.254,9.67c-1.314,2.541 -4.512,4.497 -18.872,11.542c-16.602,8.145 -41.432,17.463 -67.281,25.25l-4.532,1.365l-4.453,8.257l-4.454,8.257l1.665,1.349c2.863,2.321 11.178,5.939 17.352,7.552c7.681,2.006 21.607,2.47 29.631,0.988Zm-99.421,-140.704c5.766,-15.928 15.771,-33.569 27.145,-47.859c2.904,-3.649 9.894,-11.24 15.534,-16.87l10.253,-10.235l-4.575,-0.49c-13.172,-1.41 -44.151,1.991 -64.673,7.1c-19.949,4.967 -45.665,15.246 -58.783,23.495l-3.702,2.329l16.252,4.738c8.939,2.606 18.785,5.65 21.881,6.764c16.137,5.807 28.185,17.465 35.197,34.055c1.215,2.876 2.253,5.279 2.306,5.339c0.053,0.061 1.477,-3.704 3.165,-8.366Z" style="fill:#fff;fill-rule:nonzero;"/></svg>